<svg width="100" height="100" viewBox="0 0 100 100" fill="none" xmlns="http://www.w3.org/2000/svg">
<circle cx="50" cy="50" r="48.5" stroke="#00FFC1" stroke-width="3"/>
<path d="M42.288 30.52V56.672C42.288 61.1147 41.0747 64.512 38.648 66.864C36.2587 69.216 32.9547 70.392 28.736 70.392C24.256 70.392 20.672 69.1413 17.984 66.64C15.3333 64.1387 14.008 60.536 14.008 55.832H24.872C24.9093 58.9307 26.048 60.48 28.288 60.48C30.304 60.48 31.312 59.2107 31.312 56.672V30.52H42.288ZM64.4631 30.52C68.6071 30.52 72.2285 31.36 75.3271 33.04C78.4631 34.6827 80.8711 36.9973 82.5511 39.984C84.2311 42.9707 85.0711 46.3867 85.0711 50.232C85.0711 54.04 84.2125 57.4373 82.4951 60.424C80.8151 63.4107 78.4071 65.7627 75.2711 67.48C72.1725 69.16 68.5698 70 64.4631 70H48.8391V30.52H64.4631ZM63.6231 60.312C66.8338 60.312 69.3538 59.4347 71.1831 57.68C73.0125 55.9253 73.9271 53.4427 73.9271 50.232C73.9271 46.984 73.0125 44.4827 71.1831 42.728C69.3538 40.936 66.8338 40.04 63.6231 40.04H59.8151V60.312H63.6231Z" fill="#00FFC1"/>
</svg>
