<svg width="24" height="24" viewBox="0 0 24 24" fill="none" xmlns="http://www.w3.org/2000/svg">
<path d="M12 1.92004C9.3266 1.92004 6.76271 2.98204 4.87235 4.87241C2.98198 6.76278 1.91998 9.32666 1.91998 12C1.91998 14.6734 2.98198 17.2373 4.87235 19.1277C6.76271 21.018 9.3266 22.08 12 22.08C14.6734 22.08 17.2373 21.018 19.1276 19.1277C21.018 17.2373 22.08 14.6734 22.08 12C22.08 9.32666 21.018 6.76278 19.1276 4.87241C17.2373 2.98204 14.6734 1.92004 12 1.92004ZM17.7468 15.6732L15.672 17.748L12 14.0748L8.32678 17.7468L6.25198 15.672L9.92638 12L6.25318 8.32685L8.32798 6.25324L12 9.92525L15.6732 6.25204L17.748 8.32685L14.0736 12L17.7468 15.6732Z" fill="#F1FAEE"/>
</svg>
